<svg xmlns="http://www.w3.org/2000/svg" viewBox="0 0 374.51 479.11"><defs><style>.cls-1{isolation:isolate;}.cls-2{fill:#abc1ce;}.cls-3{fill:none;}.cls-4{fill:#d6d6d6;}.cls-11,.cls-19,.cls-5,.cls-9{fill:#5d5d5d;}.cls-5{opacity:0.15;}.cls-18,.cls-6{fill:#4c3c2e;}.cls-7{fill:#edc9b0;}.cls-12,.cls-20,.cls-26,.cls-8{fill:#a3a3a3;}.cls-8{opacity:0.12;}.cls-12,.cls-8{mix-blend-mode:multiply;}.cls-13,.cls-22,.cls-9{opacity:0.2;}.cls-10{fill:#564539;}.cls-11,.cls-12,.cls-20,.cls-21{opacity:0.1;}.cls-13,.cls-14,.cls-24{fill:#fff;}.cls-14{opacity:0.3;}.cls-15{fill:#c9c9c9;opacity:0.5;}.cls-16{fill:#52a4c1;}.cls-17{fill:#4894a8;}.cls-18,.cls-23{opacity:0.8;}.cls-19{opacity:0.05;}.cls-22{fill:#5e5e5e;}.cls-24{opacity:0.4;}.cls-25{fill:#232323;}.cls-27{fill:#383838;}</style></defs><title>personal-image</title><g class="cls-1"><g id="Layer_1" data-name="Layer 1"><polygon class="cls-2" points="297.71 329.23 278.31 403.32 278.27 403.48 272.31 444.73 272.31 444.74 267.39 478.73 267.34 479.11 59.85 479.11 59.68 477.78 59.01 472.6 58.96 472.19 52.87 424.98 40.3 327.47 40.32 327.46 40.37 327.44 41.18 327.12 41.2 327.11 112.21 298.86 125.22 312.32 125.25 312.35 125.26 312.36 125.39 312.4 125.41 312.4 168.9 323.94 168.91 323.94 213.26 313.29 213.3 313.28 213.3 313.27 219.33 301.13 296.7 328.87 296.73 328.88 296.84 328.92 297.21 329.05 297.71 329.23"/><line class="cls-3" x1="59.85" y1="478.73" x2="43.2" y2="349.69"/><polygon class="cls-4" points="59.46 477.78 59.48 477.93 57.33 460.89 59.76 477.78 59.46 477.78"/><polygon class="cls-5" points="297.43 328.18 278.25 402.87 272.22 444.49 272.21 444.63 270.06 458.74 267.34 476.78 179.61 476.78 188.84 465.81 189.15 465.77 197.53 454.5 197.55 453.78 197.57 453.78 297.43 328.18"/><polygon class="cls-6" points="268.3 147.7 257.44 177.27 229.6 105.94 184.78 79.34 124.68 88.64 97.18 119.18 92.23 129.57 92.23 129.58 69.51 177.27 63.05 142.61 69.51 94.73 92.08 86.58 84.95 67.23 131.81 26.48 138.94 33.1 148.11 0 201.07 33.1 201.07 44.82 217.37 33.1 248.95 88.64 248.95 79.34 268.3 147.7"/><polygon class="cls-7" points="257.44 177.27 248.95 241.41 213.3 313.27 168.9 323.92 125.26 312.32 125.25 312.31 91.06 277.06 69.51 177.27 97.18 119.18 124.68 88.64 184.78 79.34 229.6 105.94 257.44 177.27"/><polygon class="cls-8" points="188.12 233.37 176.96 243.45 165.73 240.93 161.74 240.93 150.52 243.45 139.34 233.37 146.95 219.93 152.2 185.13 153.91 173.8 157.12 171.52 163.73 173.81 163.94 173.74 170.35 171.52 173.56 173.8 175.27 185.13 180.51 219.93 188.12 233.37"/><polygon class="cls-9" points="144.33 237.57 153.04 232.94 161.67 240.76 150.45 243.45 144.33 237.57"/><polygon class="cls-9" points="183.15 237.57 174.43 232.94 165.8 240.76 177.02 243.45 183.15 237.57"/><polygon class="cls-10" points="138.94 33.1 84.95 67.23 131.81 26.48 138.94 33.1"/><polygon class="cls-10" points="201.07 44.82 184.78 79.34 217.37 33.1 201.07 44.82"/><polygon class="cls-10" points="84.95 67.23 124.68 88.64 92.08 86.58 84.95 67.23"/><polygon class="cls-10" points="69.51 94.73 97.18 119.18 69.51 105.26 69.51 94.73"/><polygon class="cls-10" points="248.95 88.64 229.6 105.94 251.94 89.91 248.95 79.34 248.95 88.64"/><polygon class="cls-11" points="97.18 119.18 124.68 88.64 140.16 86.25 97.18 119.18"/><polygon class="cls-11" points="140.16 86.25 229.6 105.94 184.78 79.34 140.16 86.25"/><polygon class="cls-12" points="173.56 169.28 172.3 181.01 165.87 240.76 163.95 169.59 163.94 169.22 170.35 166.85 173.56 169.28"/><polygon class="cls-13" points="104.82 140.57 219.92 132.93 172.56 145.15 104.82 140.57"/><polygon class="cls-13" points="107.87 123.25 182.31 128.34 209.18 123.25 107.87 123.25"/><polygon class="cls-14" points="101.51 131.15 114.75 128.34 140.81 131.15 101.51 131.15"/><polygon class="cls-11" points="77.36 213.65 125.25 312.31 91.06 277.06 77.36 213.65"/><polygon class="cls-11" points="248.95 241.41 168.9 323.92 213.3 313.27 248.95 241.41"/><polygon class="cls-15" points="122.15 173.14 94.3 176.53 103.6 191.42 119.22 192.45 122.15 173.14"/><polygon class="cls-15" points="122.15 173.14 140.31 184.51 119.22 192.45 122.15 173.14"/><polygon class="cls-16" points="127.2 181.8 119.54 190.36 109.68 186.52 111.67 177.67 121.88 174.92 127.2 181.8"/><polygon class="cls-13" points="111.67 177.67 127.94 183.35 122.38 174.92 111.67 177.67"/><polygon class="cls-17" points="127.2 181.8 109.68 186.52 119.54 190.36 127.2 181.8"/><polygon class="cls-15" points="205.23 173.14 233.09 176.53 223.78 191.42 208.16 192.45 205.23 173.14"/><polygon class="cls-15" points="205.23 173.14 187.07 184.51 208.16 192.45 205.23 173.14"/><polygon class="cls-16" points="200.19 181.8 207.84 190.36 217.7 186.52 215.71 177.67 205.5 174.92 200.19 181.8"/><polygon class="cls-13" points="215.06 176.76 200.19 181.8 205.27 175.29 215.06 176.76"/><polygon class="cls-17" points="200.19 181.8 217.7 186.52 207.84 190.36 200.19 181.8"/><polygon class="cls-6" points="151.16 158.47 117.04 148.72 108.52 155.51 151.16 158.47"/><polygon class="cls-10" points="117.04 148.72 90 151.77 108.52 155.51 117.04 148.72"/><polygon class="cls-18" points="90 151.77 83.34 155.51 108.52 155.51 90 151.77"/><polygon class="cls-10" points="151.16 158.47 108.52 155.51 154.03 161.83 151.16 158.47"/><polygon class="cls-6" points="176.71 158.71 210.83 148.96 219.35 155.75 176.71 158.71"/><polygon class="cls-10" points="210.83 148.96 237.87 152.01 219.35 155.75 210.83 148.96"/><polygon class="cls-18" points="237.87 152.01 244.53 155.75 219.35 155.75 237.87 152.01"/><polygon class="cls-10" points="176.71 158.71 219.35 155.75 173.84 162.07 176.71 158.71"/><polygon class="cls-19" points="188.1 273.62 176.87 279.94 176.83 279.91 176.78 279.94 163.18 280.53 163.18 276.78 172.14 275.53 188.1 273.62"/><polygon class="cls-19" points="135.98 281.46 145.25 277.44 154.21 275.53 163.18 276.78 163.18 280.53 149.58 279.94 135.98 281.46"/><polygon class="cls-20" points="163.18 276.83 176.78 279.94 172.14 275.53 163.18 276.83"/><polygon class="cls-20" points="163.18 276.78 135.98 281.46 154.21 275.53 163.18 276.78"/><polygon class="cls-9" points="181.01 283.76 171.87 284.72 163.31 285.82 163.23 285.82 154.67 284.72 145.52 283.76 136.07 281.46 149.67 279.94 163.27 280.53 176.87 279.94 181.01 283.76"/><polygon class="cls-11" points="163.31 285.82 176.87 279.94 181.01 283.76 163.31 285.82"/><polygon class="cls-11" points="163.31 285.82 149.67 279.94 136.07 281.46 163.31 285.82"/><polygon class="cls-9" points="181.01 283.76 192.44 276.78 176.87 279.94 181.01 283.76"/><polygon class="cls-11" points="188.1 273.61 195.38 273.61 192.44 276.78 176.87 279.94 188.1 273.61"/><polygon class="cls-21" points="219.32 301.13 213.3 313.27 297.43 329.01 219.32 301.13"/><polygon class="cls-22" points="213.3 313.27 163.94 337.16 168.9 323.92 213.3 313.27"/><polygon class="cls-22" points="163.94 337.16 125.25 312.31 168.9 323.92 163.94 337.16"/><polygon class="cls-7" points="197.96 479.11 119.39 479.11 119.39 468.11 135.75 455.88 132.27 427.83 143.72 415.86 150.52 421.27 152.03 435.45 167.63 461.57 188.9 460.13 189.39 460.1 189.39 477.78 197.8 477.78 197.92 478.73 197.92 478.78 197.96 479.11"/><polygon class="cls-11" points="189.39 477.78 176.09 477.78 189.6 459.15 189.39 477.78"/><polygon class="cls-2" points="374.51 440.71 370.35 469.37 335.71 478.78 189.39 478.78 189.39 456.63 269.72 445.95 310.18 425.27 278.21 403.29 297.68 329.22 374.51 440.71"/><polygon class="cls-4" points="57.33 461.13 54.43 440.81 54.79 441.09 57.33 461.13"/><polygon class="cls-4" points="43.2 349.69 40.3 327.27 40.36 327.44 43.2 349.69"/><polygon class="cls-2" points="59.85 479.11 4.83 479.11 0 424.12 40.3 327.56 59.85 479.11"/><g class="cls-23"><polygon class="cls-24" points="251.47 175.98 248.06 202.69 239.99 215.61 219.41 223.45 202.05 224.07 185.96 215.85 173.48 201.99 172.94 186.19 187.79 169.16 187.79 169.16 187.79 169.16 246.98 169.33 251.47 175.98"/><polygon class="cls-24" points="154.7 186.19 154.16 201.99 141.68 215.85 125.58 224.07 108.23 223.45 87.65 215.61 79.58 202.69 76.17 175.98 80.66 169.33 80.67 169.33 139.85 169.16 139.85 169.16 154.7 186.19"/></g><polygon class="cls-25" points="85.19 162.63 155.28 169.11 80.65 169.35 85.19 162.63"/><polygon class="cls-25" points="242.46 162.63 172.36 169.11 246.99 169.35 242.46 162.63"/><polygon class="cls-25" points="154.75 186.24 163.82 183.86 172.9 186.24 163.82 172.58 154.75 186.24"/><polygon class="cls-26" points="159.88 184.89 154.47 195.05 154.75 186.24 159.88 184.89"/><polygon class="cls-26" points="167.85 184.89 173.27 195.05 172.99 186.24 167.85 184.89"/><polygon class="cls-27" points="253.68 162.19 253.68 175.99 251.53 176.07 251.47 175.98 246.98 169.33 242.46 162.62 253.68 162.19"/><polygon class="cls-27" points="85.18 162.62 80.66 169.33 76.17 175.98 76.11 176.07 73.96 175.99 73.96 162.19 85.18 162.62"/><polygon class="cls-27" points="187.79 169.16 174.3 184.63 172.94 186.19 172.9 186.25 171.6 184.29 164.01 172.88 163.82 172.58 164 172.5 169.83 170.13 172.35 169.11 187.79 169.16 187.79 169.16"/><polygon class="cls-27" points="163.82 172.58 154.75 186.25 154.7 186.19 153.34 184.63 139.85 169.16 139.85 169.16 155.28 169.11 157.81 170.14 163.82 172.58"/><polygon class="cls-21" points="40.3 327.27 112.2 298.76 125.25 312.31 40.3 327.27"/><polygon class="cls-5" points="125.25 312.31 59.85 478.73 40.3 327.27 125.25 312.31"/><polygon class="cls-11" points="119.39 468.11 136.28 455.88 119.39 478.73 119.39 468.11"/><rect class="cls-7" x="67.64" y="478.78" width="182" height="0.33"/></g></g></svg>